<svg width="176" height="32" viewBox="0 0 176 32" fill="none" xmlns="http://www.w3.org/2000/svg">
<g clip-path="url(#clip0_0_751)">
<path d="M43.0902 16.3008V24.0002C43.0902 24.6905 42.5289 25.2518 41.8012 25.2518C41.0734 25.2518 40.5302 24.6918 40.5302 24.0002V16.3008H38.4553C37.7831 16.3008 37.2037 15.7215 37.2037 15.0299C37.2037 14.3383 37.7831 13.7589 38.4553 13.7589H45.1263C45.8554 13.7589 46.3973 14.3202 46.3973 15.0299C46.3973 15.7396 45.8554 16.3008 45.1263 16.3008H43.0902Z" fill="#212121"/>
<path d="M49.1457 14.5254C49.3702 13.9834 49.8928 13.7589 50.4347 13.7589C50.9766 13.7589 51.4812 13.9834 51.6863 14.5254L55.516 23.4763C55.8153 24.1305 55.516 24.8776 54.8618 25.1383C54.6941 25.2325 54.5444 25.2505 54.3573 25.2505C53.8708 25.2505 53.4037 24.9705 53.1986 24.4841L52.676 23.2699H48.1728L47.6489 24.4841C47.4437 24.9705 46.9766 25.2505 46.4902 25.2505C46.3224 25.2505 46.1354 25.2325 45.9676 25.1383C45.3134 24.8776 45.0141 24.1292 45.3134 23.4763L49.1444 14.5254H49.1457ZM50.4347 18.0208L49.2579 20.7125H51.556L50.4347 18.0208Z" fill="#212121"/>
<path d="M56.1845 16.7873C56.2787 15.2363 57.511 13.7602 59.8658 13.7589H63.5845C64.2761 13.7589 64.8555 14.3202 64.8555 15.0299C64.8555 15.7396 64.2761 16.3008 63.5845 16.3008H59.7355C59.2116 16.3008 58.951 16.6183 58.9123 16.937C58.9123 17.2544 59.1368 17.5718 59.6039 17.7408L63.2297 18.9176C64.9303 19.4789 65.6774 20.8621 65.6219 22.226C65.529 23.7783 64.2942 25.2531 61.9032 25.2531H57.9419C57.2323 25.2531 56.6529 24.6931 56.6529 24.0015C56.6529 23.2725 57.2323 22.6931 57.9419 22.6931H62.0348C62.5574 22.6931 62.8568 22.395 62.8568 22.057C62.8568 21.7576 62.6503 21.4208 62.1652 21.2905L58.5587 20.0944C56.8581 19.515 56.129 18.1318 56.1858 16.786L56.1845 16.7873Z" fill="#212121"/>
<path d="M68.1783 13.7603C68.8699 13.7603 69.4299 14.3215 69.4299 15.0312V18.5073L73.2428 14.2093C73.5047 13.9099 73.8789 13.7603 74.2144 13.7603C74.5125 13.7603 74.8118 13.8544 75.0557 14.0609C75.5783 14.528 75.635 15.3499 75.186 15.8919L72.6828 18.7138L75.3176 23.3486C75.6725 23.9654 75.4673 24.7125 74.8686 25.1048C74.6621 25.2157 74.457 25.2532 74.2325 25.2532C73.7834 25.2532 73.355 25.0286 73.1112 24.6183L70.8686 20.7499L69.4299 22.3951V23.9835C69.4299 24.6751 68.8699 25.2544 68.1783 25.2544C67.4492 25.2544 66.8699 24.6751 66.8699 23.9835V15.0325C66.8699 14.3228 67.4492 13.7615 68.1783 13.7615V13.7603Z" fill="#212121"/>
<path d="M76.2968 16.7873C76.391 15.2363 77.6245 13.7602 79.9781 13.7589H83.6968C84.3884 13.7589 84.9677 14.3202 84.9677 15.0299C84.9677 15.7396 84.3884 16.3008 83.6968 16.3008H79.8477C79.3239 16.3008 79.0632 16.6183 79.0245 16.937C79.0245 17.2544 79.249 17.5718 79.7161 17.7408L83.3419 18.9176C85.0413 19.4789 85.7897 20.8621 85.7329 22.226C85.64 23.7783 84.4064 25.2531 82.0142 25.2531H78.0529C77.3432 25.2531 76.7639 24.6931 76.7639 24.0015C76.7639 23.2725 77.3432 22.6931 78.0529 22.6931H82.1458C82.6684 22.6931 82.9677 22.395 82.9677 22.057C82.9677 21.7576 82.7626 21.4208 82.2761 21.2905L78.6697 20.0944C76.969 19.515 76.24 18.1318 76.2968 16.786V16.7873Z" fill="#212121"/>
<path d="M37.2024 5.30865C37.2024 5.13575 37.3405 4.99768 37.4966 4.99768H39.2527C40.2127 4.99768 40.9921 5.78478 40.9921 6.73704C40.9921 7.68929 40.2127 8.45833 39.2527 8.45833H37.7998V10.0325C37.7998 10.1886 37.6617 10.3267 37.4966 10.3267C37.3314 10.3267 37.2024 10.1886 37.2024 10.0325V5.30865ZM37.7998 5.60284V7.86994H39.2527C39.8837 7.86994 40.3856 7.35123 40.3856 6.73704C40.3856 6.12284 39.8837 5.60413 39.2527 5.60413H37.7998V5.60284Z" fill="#212121"/>
<path d="M45.1253 4.99756C45.2814 4.99756 45.4195 5.13562 45.4195 5.30853C45.4195 5.46466 45.2814 5.60272 45.1253 5.60272H42.3305V7.36788H44.7795C44.9434 7.36788 45.0737 7.50595 45.0737 7.66207C45.0737 7.82595 44.9434 7.95627 44.7795 7.95627H42.3305V9.72143H45.1253C45.2814 9.72143 45.4195 9.86853 45.4195 10.0337C45.4195 10.1898 45.2814 10.3279 45.1253 10.3279H42.0363C41.8711 10.3279 41.733 10.1898 41.733 10.0337V5.30982C41.733 5.12788 41.8711 4.99885 42.0363 4.99885H45.1253V4.99756Z" fill="#212121"/>
<path d="M47.9783 5.60272V10.0324C47.9783 10.1885 47.8402 10.3266 47.6751 10.3266C47.5189 10.3266 47.3809 10.1885 47.3809 10.0324V5.60272H45.9963C45.8402 5.60272 45.7021 5.46466 45.7021 5.30853C45.7021 5.13562 45.8402 4.99756 45.9963 4.99756H49.3615C49.5176 4.99756 49.6467 5.13562 49.6467 5.30853C49.6467 5.46466 49.5163 5.60272 49.3615 5.60272H47.977H47.9783Z" fill="#212121"/>
<path d="M50.2324 5.30853C50.2324 5.13562 50.3705 4.99756 50.5266 4.99756H52.2827C53.2427 4.99756 54.0221 5.78466 54.0221 6.73691C54.0221 7.68917 53.2427 8.4582 52.2827 8.4582H50.8298V10.0324C50.8298 10.1885 50.6918 10.3266 50.5266 10.3266C50.3615 10.3266 50.2324 10.1885 50.2324 10.0324V5.30853ZM50.8298 5.60272V7.86982H52.2827C52.9137 7.86982 53.4156 7.35111 53.4156 6.73691C53.4156 6.12272 52.9137 5.60401 52.2827 5.60401H50.8298V5.60272Z" fill="#212121"/>
<path d="M67.0333 4.99751C67.2062 4.99751 67.3442 5.13557 67.3442 5.30847V8.36267C67.3442 9.44396 66.4707 10.3175 65.3894 10.3265C65.2255 10.3265 65.0862 10.1962 65.0862 10.0323C65.0862 9.86847 65.2165 9.72009 65.3894 9.72009C66.1339 9.72009 66.7481 9.11493 66.7481 8.36138V5.30718C66.7481 5.13428 66.8784 4.99622 67.0333 4.99622V4.99751Z" fill="#212121"/>
<path d="M69.7882 5.17949C69.8321 5.0582 69.9611 4.99756 70.0824 4.99756C70.2037 4.99756 70.3159 5.0582 70.3766 5.17949L72.3663 9.9124C72.4359 10.0672 72.3663 10.2324 72.2101 10.3021C72.1753 10.3201 72.1404 10.3279 72.0979 10.3279C71.9856 10.3279 71.8811 10.2595 71.8295 10.1459L71.3882 9.10724H68.7663L68.334 10.1459C68.2914 10.2582 68.1701 10.3279 68.0566 10.3279C68.0217 10.3279 67.9792 10.3188 67.9443 10.3021C67.7882 10.2337 67.7198 10.0685 67.7882 9.9124L69.7869 5.17949H69.7882ZM70.0824 6.00143L69.0179 8.51885H71.1288L70.0811 6.00143H70.0824Z" fill="#212121"/>
<path d="M58.2595 10.3344C56.4931 10.3344 55.0557 8.89696 55.0557 7.13051C55.0557 5.36405 56.4931 3.92664 58.2595 3.92664C60.026 3.92664 61.4634 5.36405 61.4634 7.13051C61.4634 7.29309 61.3318 7.4247 61.1692 7.4247C61.0066 7.4247 60.875 7.29309 60.875 7.13051C60.875 5.68922 59.7021 4.51502 58.2595 4.51502C56.817 4.51502 55.6441 5.68793 55.6441 7.13051C55.6441 8.57309 56.817 9.74599 58.2595 9.74599C58.4221 9.74599 58.5537 9.8776 58.5537 10.0402C58.5537 10.2028 58.4221 10.3344 58.2595 10.3344Z" fill="#212121"/>
<path d="M61.7859 10.3343C60.2994 10.3343 59.0891 9.12402 59.0891 7.63757C59.0891 7.47499 59.2207 7.34338 59.3833 7.34338C59.5459 7.34338 59.6775 7.47499 59.6775 7.63757C59.6775 8.80015 60.6233 9.74596 61.7859 9.74596C62.9485 9.74596 63.8943 8.80015 63.8943 7.63757C63.8943 6.47499 62.9485 5.52918 61.7859 5.52918C61.6233 5.52918 61.4917 5.39757 61.4917 5.23499C61.4917 5.07241 61.6233 4.9408 61.7859 4.9408C63.2723 4.9408 64.4827 6.15112 64.4827 7.63757C64.4827 9.12402 63.2723 10.3343 61.7859 10.3343Z" fill="#212121"/>
<path d="M9.81272 32.0001C13.8996 32.0001 17.2127 28.687 17.2127 24.6001C17.2127 20.5132 13.8996 17.2001 9.81272 17.2001C5.72581 17.2001 2.41272 20.5132 2.41272 24.6001C2.41272 28.687 5.72581 32.0001 9.81272 32.0001Z" fill="#108D33"/>
<path d="M9.81272 31.3936C13.8996 31.3936 17.2127 28.0805 17.2127 23.9936C17.2127 19.9067 13.8996 16.5936 9.81272 16.5936C5.72581 16.5936 2.41272 19.9067 2.41272 23.9936C2.41272 28.0805 5.72581 31.3936 9.81272 31.3936Z" fill="#118E34"/>
<path d="M9.81272 30.7858C13.8996 30.7858 17.2127 27.4727 17.2127 23.3858C17.2127 19.2989 13.8996 15.9858 9.81272 15.9858C5.72581 15.9858 2.41272 19.2989 2.41272 23.3858C2.41272 27.4727 5.72581 30.7858 9.81272 30.7858Z" fill="#128E35"/>
<path d="M9.81272 30.1794C13.8996 30.1794 17.2127 26.8663 17.2127 22.7794C17.2127 18.6925 13.8996 15.3794 9.81272 15.3794C5.72581 15.3794 2.41272 18.6925 2.41272 22.7794C2.41272 26.8663 5.72581 30.1794 9.81272 30.1794Z" fill="#138F36"/>
<path d="M9.81272 29.5729C13.8996 29.5729 17.2127 26.2599 17.2127 22.1729C17.2127 18.086 13.8996 14.7729 9.81272 14.7729C5.72581 14.7729 2.41272 18.086 2.41272 22.1729C2.41272 26.2599 5.72581 29.5729 9.81272 29.5729Z" fill="#148F36"/>
<path d="M9.81272 28.9652C13.8996 28.9652 17.2127 25.6521 17.2127 21.5652C17.2127 17.4783 13.8996 14.1652 9.81272 14.1652C5.72581 14.1652 2.41272 17.4783 2.41272 21.5652C2.41272 25.6521 5.72581 28.9652 9.81272 28.9652Z" fill="#159037"/>
<path d="M9.81272 28.3587C13.8996 28.3587 17.2127 25.0456 17.2127 20.9587C17.2127 16.8718 13.8996 13.5587 9.81272 13.5587C5.72581 13.5587 2.41272 16.8718 2.41272 20.9587C2.41272 25.0456 5.72581 28.3587 9.81272 28.3587Z" fill="#169138"/>
<path d="M9.81272 27.751C13.8996 27.751 17.2127 24.438 17.2127 20.351C17.2127 16.2641 13.8996 12.951 9.81272 12.951C5.72581 12.951 2.41272 16.2641 2.41272 20.351C2.41272 24.438 5.72581 27.751 9.81272 27.751Z" fill="#179139"/>
<path d="M9.81272 27.1446C13.8996 27.1446 17.2127 23.8315 17.2127 19.7446C17.2127 15.6577 13.8996 12.3446 9.81272 12.3446C5.72581 12.3446 2.41272 15.6577 2.41272 19.7446C2.41272 23.8315 5.72581 27.1446 9.81272 27.1446Z" fill="#18923A"/>
<path d="M9.81272 26.5382C13.8996 26.5382 17.2127 23.2251 17.2127 19.1382C17.2127 15.0513 13.8996 11.7382 9.81272 11.7382C5.72581 11.7382 2.41272 15.0513 2.41272 19.1382C2.41272 23.2251 5.72581 26.5382 9.81272 26.5382Z" fill="#19933B"/>
<path d="M9.81272 25.9304C13.8996 25.9304 17.2127 22.6173 17.2127 18.5304C17.2127 14.4435 13.8996 11.1304 9.81272 11.1304C5.72581 11.1304 2.41272 14.4435 2.41272 18.5304C2.41272 22.6173 5.72581 25.9304 9.81272 25.9304Z" fill="#1A933C"/>
<path d="M9.81272 25.3239C13.8996 25.3239 17.2127 22.0108 17.2127 17.9239C17.2127 13.837 13.8996 10.5239 9.81272 10.5239C5.72581 10.5239 2.41272 13.837 2.41272 17.9239C2.41272 22.0108 5.72581 25.3239 9.81272 25.3239Z" fill="#1B943C"/>
<path d="M9.81272 24.7161C13.8996 24.7161 17.2127 21.403 17.2127 17.3161C17.2127 13.2292 13.8996 9.91614 9.81272 9.91614C5.72581 9.91614 2.41272 13.2292 2.41272 17.3161C2.41272 21.403 5.72581 24.7161 9.81272 24.7161Z" fill="#1C943D"/>
<path d="M9.81272 24.1097C13.8996 24.1097 17.2127 20.7966 17.2127 16.7097C17.2127 12.6228 13.8996 9.30969 9.81272 9.30969C5.72581 9.30969 2.41272 12.6228 2.41272 16.7097C2.41272 20.7966 5.72581 24.1097 9.81272 24.1097Z" fill="#1D953E"/>
<path d="M9.81272 23.5032C13.8996 23.5032 17.2127 20.1902 17.2127 16.1032C17.2127 12.0163 13.8996 8.70325 9.81272 8.70325C5.72581 8.70325 2.41272 12.0163 2.41272 16.1032C2.41272 20.1902 5.72581 23.5032 9.81272 23.5032Z" fill="#1E963F"/>
<path d="M9.81272 22.8956C13.8996 22.8956 17.2127 19.5825 17.2127 15.4956C17.2127 11.4087 13.8996 8.09558 9.81272 8.09558C5.72581 8.09558 2.41272 11.4087 2.41272 15.4956C2.41272 19.5825 5.72581 22.8956 9.81272 22.8956Z" fill="#1F9640"/>
<path d="M9.81272 22.2891C13.8996 22.2891 17.2127 18.976 17.2127 14.8891C17.2127 10.8022 13.8996 7.48914 9.81272 7.48914C5.72581 7.48914 2.41272 10.8022 2.41272 14.8891C2.41272 18.976 5.72581 22.2891 9.81272 22.2891Z" fill="#209741"/>
<path d="M9.81272 21.6827C13.8996 21.6827 17.2127 18.3696 17.2127 14.2827C17.2127 10.1958 13.8996 6.88269 9.81272 6.88269C5.72581 6.88269 2.41272 10.1958 2.41272 14.2827C2.41272 18.3696 5.72581 21.6827 9.81272 21.6827Z" fill="#219842"/>
<path d="M9.81272 21.0749C13.8996 21.0749 17.2127 17.7618 17.2127 13.6749C17.2127 9.588 13.8996 6.2749 9.81272 6.2749C5.72581 6.2749 2.41272 9.588 2.41272 13.6749C2.41272 17.7618 5.72581 21.0749 9.81272 21.0749Z" fill="#229842"/>
<path d="M9.81272 20.4685C13.8996 20.4685 17.2127 17.1554 17.2127 13.0685C17.2127 8.98155 13.8996 5.66846 9.81272 5.66846C5.72581 5.66846 2.41272 8.98155 2.41272 13.0685C2.41272 17.1554 5.72581 20.4685 9.81272 20.4685Z" fill="#239943"/>
<path d="M9.81272 19.8607C13.8996 19.8607 17.2127 16.5476 17.2127 12.4607C17.2127 8.37376 13.8996 5.06067 9.81272 5.06067C5.72581 5.06067 2.41272 8.37376 2.41272 12.4607C2.41272 16.5476 5.72581 19.8607 9.81272 19.8607Z" fill="#249944"/>
<path d="M9.81272 19.2542C13.8996 19.2542 17.2127 15.9411 17.2127 11.8542C17.2127 7.76732 13.8996 4.45422 9.81272 4.45422C5.72581 4.45422 2.41272 7.76732 2.41272 11.8542C2.41272 15.9411 5.72581 19.2542 9.81272 19.2542Z" fill="#259A45"/>
<path d="M9.81272 18.6478C13.8996 18.6478 17.2127 15.3347 17.2127 11.2478C17.2127 7.16087 13.8996 3.84778 9.81272 3.84778C5.72581 3.84778 2.41272 7.16087 2.41272 11.2478C2.41272 15.3347 5.72581 18.6478 9.81272 18.6478Z" fill="#269B46"/>
<path d="M9.81272 18.0401C13.8996 18.0401 17.2127 14.727 17.2127 10.6401C17.2127 6.55321 13.8996 3.24011 9.81272 3.24011C5.72581 3.24011 2.41272 6.55321 2.41272 10.6401C2.41272 14.727 5.72581 18.0401 9.81272 18.0401Z" fill="#279B47"/>
<path d="M9.81272 17.4337C13.8996 17.4337 17.2127 14.1206 17.2127 10.0337C17.2127 5.94676 13.8996 2.63367 9.81272 2.63367C5.72581 2.63367 2.41272 5.94676 2.41272 10.0337C2.41272 14.1206 5.72581 17.4337 9.81272 17.4337Z" fill="#289C48"/>
<path d="M9.81272 16.8259C13.8996 16.8259 17.2127 13.5128 17.2127 9.42588C17.2127 5.33897 13.8996 2.02588 9.81272 2.02588C5.72581 2.02588 2.41272 5.33897 2.41272 9.42588C2.41272 13.5128 5.72581 16.8259 9.81272 16.8259Z" fill="#299C48"/>
<path d="M9.81272 16.2194C13.8996 16.2194 17.2127 12.9063 17.2127 8.81943C17.2127 4.73253 13.8996 1.41943 9.81272 1.41943C5.72581 1.41943 2.41272 4.73253 2.41272 8.81943C2.41272 12.9063 5.72581 16.2194 9.81272 16.2194Z" fill="#2A9D49"/>
<path d="M9.81272 15.613C13.8996 15.613 17.2127 12.2999 17.2127 8.21299C17.2127 4.12608 13.8996 0.812988 9.81272 0.812988C5.72581 0.812988 2.41272 4.12608 2.41272 8.21299C2.41272 12.2999 5.72581 15.613 9.81272 15.613Z" fill="#2B9E4A"/>
<path d="M9.81272 15.0052C13.8996 15.0052 17.2127 11.6921 17.2127 7.6052C17.2127 3.51829 13.8996 0.2052 9.81272 0.2052C5.72581 0.2052 2.41272 3.51829 2.41272 7.6052C2.41272 11.6921 5.72581 15.0052 9.81272 15.0052Z" fill="#2C9E4B"/>
<path d="M10.3004 14.8865C14.3873 14.8865 17.7004 11.5735 17.7004 7.48655C17.7004 3.39964 14.3873 0.0865479 10.3004 0.0865479C6.21348 0.0865479 2.90039 3.39964 2.90039 7.48655C2.90039 11.5735 6.21348 14.8865 10.3004 14.8865Z" fill="#2D9F4C"/>
<path d="M10.9068 14.8865C14.9937 14.8865 18.3068 11.5735 18.3068 7.48655C18.3068 3.39964 14.9937 0.0865479 10.9068 0.0865479C6.81993 0.0865479 3.50684 3.39964 3.50684 7.48655C3.50684 11.5735 6.81993 14.8865 10.9068 14.8865Z" fill="#2EA04D"/>
<path d="M11.5133 14.8865C15.6002 14.8865 18.9133 11.5735 18.9133 7.48655C18.9133 3.39964 15.6002 0.0865479 11.5133 0.0865479C7.42637 0.0865479 4.11328 3.39964 4.11328 7.48655C4.11328 11.5735 7.42637 14.8865 11.5133 14.8865Z" fill="#2FA04E"/>
<path d="M12.1209 14.8865C16.2079 14.8865 19.5209 11.5735 19.5209 7.48655C19.5209 3.39964 16.2079 0.0865479 12.1209 0.0865479C8.03404 0.0865479 4.72095 3.39964 4.72095 7.48655C4.72095 11.5735 8.03404 14.8865 12.1209 14.8865Z" fill="#30A14E"/>
<path d="M12.7278 14.8865C16.8147 14.8865 20.1278 11.5735 20.1278 7.48655C20.1278 3.39964 16.8147 0.0865479 12.7278 0.0865479C8.64085 0.0865479 5.32776 3.39964 5.32776 7.48655C5.32776 11.5735 8.64085 14.8865 12.7278 14.8865Z" fill="#31A14F"/>
<path d="M13.3352 14.8865C17.4221 14.8865 20.7352 11.5735 20.7352 7.48655C20.7352 3.39964 17.4221 0.0865479 13.3352 0.0865479C9.24827 0.0865479 5.93518 3.39964 5.93518 7.48655C5.93518 11.5735 9.24827 14.8865 13.3352 14.8865Z" fill="#32A250"/>
<path d="M13.942 14.8865C18.0289 14.8865 21.342 11.5735 21.342 7.48655C21.342 3.39964 18.0289 0.0865479 13.942 0.0865479C9.85509 0.0865479 6.54199 3.39964 6.54199 7.48655C6.54199 11.5735 9.85509 14.8865 13.942 14.8865Z" fill="#33A351"/>
<path d="M14.5484 14.8865C18.6353 14.8865 21.9484 11.5735 21.9484 7.48655C21.9484 3.39964 18.6353 0.0865479 14.5484 0.0865479C10.4615 0.0865479 7.14844 3.39964 7.14844 7.48655C7.14844 11.5735 10.4615 14.8865 14.5484 14.8865Z" fill="#34A352"/>
<path d="M15.1559 14.8865C19.2428 14.8865 22.5559 11.5735 22.5559 7.48655C22.5559 3.39964 19.2428 0.0865479 15.1559 0.0865479C11.069 0.0865479 7.75586 3.39964 7.75586 7.48655C7.75586 11.5735 11.069 14.8865 15.1559 14.8865Z" fill="#35A453"/>
<path d="M15.7623 14.8865C19.8492 14.8865 23.1623 11.5735 23.1623 7.48655C23.1623 3.39964 19.8492 0.0865479 15.7623 0.0865479C11.6754 0.0865479 8.3623 3.39964 8.3623 7.48655C8.3623 11.5735 11.6754 14.8865 15.7623 14.8865Z" fill="#36A554"/>
<path d="M16.3687 14.8865C20.4557 14.8865 23.7688 11.5735 23.7688 7.48655C23.7688 3.39964 20.4557 0.0865479 16.3687 0.0865479C12.2818 0.0865479 8.96875 3.39964 8.96875 7.48655C8.96875 11.5735 12.2818 14.8865 16.3687 14.8865Z" fill="#37A554"/>
<path d="M16.9768 14.8865C21.0637 14.8865 24.3768 11.5735 24.3768 7.48655C24.3768 3.39964 21.0637 0.0865479 16.9768 0.0865479C12.8899 0.0865479 9.57678 3.39964 9.57678 7.48655C9.57678 11.5735 12.8899 14.8865 16.9768 14.8865Z" fill="#38A655"/>
<path d="M17.5829 14.8865C21.6698 14.8865 24.9829 11.5735 24.9829 7.48655C24.9829 3.39964 21.6698 0.0865479 17.5829 0.0865479C13.496 0.0865479 10.1829 3.39964 10.1829 7.48655C10.1829 11.5735 13.496 14.8865 17.5829 14.8865Z" fill="#39A656"/>
<path d="M18.191 14.8865C22.2779 14.8865 25.591 11.5735 25.591 7.48655C25.591 3.39964 22.2779 0.0865479 18.191 0.0865479C14.1041 0.0865479 10.791 3.39964 10.791 7.48655C10.791 11.5735 14.1041 14.8865 18.191 14.8865Z" fill="#3AA757"/>
<path d="M18.7975 14.8865C22.8844 14.8865 26.1975 11.5735 26.1975 7.48655C26.1975 3.39964 22.8844 0.0865479 18.7975 0.0865479C14.7106 0.0865479 11.3975 3.39964 11.3975 7.48655C11.3975 11.5735 14.7106 14.8865 18.7975 14.8865Z" fill="#3BA858"/>
<path d="M19.4039 14.8865C23.4908 14.8865 26.8039 11.5735 26.8039 7.48655C26.8039 3.39964 23.4908 0.0865479 19.4039 0.0865479C15.317 0.0865479 12.0039 3.39964 12.0039 7.48655C12.0039 11.5735 15.317 14.8865 19.4039 14.8865Z" fill="#3CA859"/>
<path d="M20.0113 14.8865C24.0982 14.8865 27.4113 11.5735 27.4113 7.48655C27.4113 3.39964 24.0982 0.0865479 20.0113 0.0865479C15.9244 0.0865479 12.6113 3.39964 12.6113 7.48655C12.6113 11.5735 15.9244 14.8865 20.0113 14.8865Z" fill="#3DA95A"/>
<path d="M20.6178 14.8865C24.7047 14.8865 28.0178 11.5735 28.0178 7.48655C28.0178 3.39964 24.7047 0.0865479 20.6178 0.0865479C16.5309 0.0865479 13.2178 3.39964 13.2178 7.48655C13.2178 11.5735 16.5309 14.8865 20.6178 14.8865Z" fill="#3EA95A"/>
<path d="M21.2258 14.8865C25.3127 14.8865 28.6258 11.5735 28.6258 7.48655C28.6258 3.39964 25.3127 0.0865479 21.2258 0.0865479C17.1389 0.0865479 13.8258 3.39964 13.8258 7.48655C13.8258 11.5735 17.1389 14.8865 21.2258 14.8865Z" fill="#3FAA5B"/>
<path d="M21.8319 14.8865C25.9188 14.8865 29.2319 11.5735 29.2319 7.48655C29.2319 3.39964 25.9188 0.0865479 21.8319 0.0865479C17.745 0.0865479 14.4319 3.39964 14.4319 7.48655C14.4319 11.5735 17.745 14.8865 21.8319 14.8865Z" fill="#40AB5C"/>
<path d="M22.4383 14.8865C26.5252 14.8865 29.8383 11.5735 29.8383 7.48655C29.8383 3.39964 26.5252 0.0865479 22.4383 0.0865479C18.3514 0.0865479 15.0383 3.39964 15.0383 7.48655C15.0383 11.5735 18.3514 14.8865 22.4383 14.8865Z" fill="#41AB5D"/>
<path d="M23.0465 14.8865C27.1334 14.8865 30.4465 11.5735 30.4465 7.48655C30.4465 3.39964 27.1334 0.0865479 23.0465 0.0865479C18.9596 0.0865479 15.6465 3.39964 15.6465 7.48655C15.6465 11.5735 18.9596 14.8865 23.0465 14.8865Z" fill="#42AC5E"/>
<path d="M23.6529 14.8865C27.7398 14.8865 31.0529 11.5735 31.0529 7.48655C31.0529 3.39964 27.7398 0.0865479 23.6529 0.0865479C19.566 0.0865479 16.2529 3.39964 16.2529 7.48655C16.2529 11.5735 19.566 14.8865 23.6529 14.8865Z" fill="#43AD5F"/>
<path d="M24.259 14.8865C28.3459 14.8865 31.659 11.5735 31.659 7.48655C31.659 3.39964 28.3459 0.0865479 24.259 0.0865479C20.1721 0.0865479 16.859 3.39964 16.859 7.48655C16.859 11.5735 20.1721 14.8865 24.259 14.8865Z" fill="#44AD60"/>
<path d="M24.5637 15.1896C28.6506 15.1896 31.9637 11.8766 31.9637 7.78965C31.9637 3.70274 28.6506 0.389648 24.5637 0.389648C20.4768 0.389648 17.1637 3.70274 17.1637 7.78965C17.1637 11.8766 20.4768 15.1896 24.5637 15.1896Z" fill="#44AE60"/>
<path d="M24.5637 15.7962C28.6506 15.7962 31.9637 12.4831 31.9637 8.39622C31.9637 4.30931 28.6506 0.996216 24.5637 0.996216C20.4768 0.996216 17.1637 4.30931 17.1637 8.39622C17.1637 12.4831 20.4768 15.7962 24.5637 15.7962Z" fill="#45AE61"/>
<path d="M24.5637 16.4039C28.6506 16.4039 31.9637 13.0908 31.9637 9.00388C31.9637 4.91697 28.6506 1.60388 24.5637 1.60388C20.4768 1.60388 17.1637 4.91697 17.1637 9.00388C17.1637 13.0908 20.4768 16.4039 24.5637 16.4039Z" fill="#46AF62"/>
<path d="M24.5637 17.0104C28.6506 17.0104 31.9637 13.6974 31.9637 9.61045C31.9637 5.52354 28.6506 2.21045 24.5637 2.21045C20.4768 2.21045 17.1637 5.52354 17.1637 9.61045C17.1637 13.6974 20.4768 17.0104 24.5637 17.0104Z" fill="#47B063"/>
<path d="M24.5637 17.6168C28.6506 17.6168 31.9637 14.3037 31.9637 10.2168C31.9637 6.12987 28.6506 2.81677 24.5637 2.81677C20.4768 2.81677 17.1637 6.12987 17.1637 10.2168C17.1637 14.3037 20.4768 17.6168 24.5637 17.6168Z" fill="#48B064"/>
<path d="M24.5637 18.2247C28.6506 18.2247 31.9637 14.9116 31.9637 10.8247C31.9637 6.73778 28.6506 3.42468 24.5637 3.42468C20.4768 3.42468 17.1637 6.73778 17.1637 10.8247C17.1637 14.9116 20.4768 18.2247 24.5637 18.2247Z" fill="#49B165"/>
<path d="M24.5637 18.8309C28.6506 18.8309 31.9637 15.5178 31.9637 11.4309C31.9637 7.34398 28.6506 4.03088 24.5637 4.03088C20.4768 4.03088 17.1637 7.34398 17.1637 11.4309C17.1637 15.5178 20.4768 18.8309 24.5637 18.8309Z" fill="#4AB266"/>
<path d="M24.5637 19.4376C28.6506 19.4376 31.9637 16.1245 31.9637 12.0376C31.9637 7.95067 28.6506 4.63757 24.5637 4.63757C20.4768 4.63757 17.1637 7.95067 17.1637 12.0376C17.1637 16.1245 20.4768 19.4376 24.5637 19.4376Z" fill="#4BB266"/>
<path d="M24.5637 20.0452C28.6506 20.0452 31.9637 16.7321 31.9637 12.6452C31.9637 8.55833 28.6506 5.24524 24.5637 5.24524C20.4768 5.24524 17.1637 8.55833 17.1637 12.6452C17.1637 16.7321 20.4768 20.0452 24.5637 20.0452Z" fill="#4CB367"/>
<path d="M24.5637 20.6516C28.6506 20.6516 31.9637 17.3385 31.9637 13.2516C31.9637 9.16465 28.6506 5.85156 24.5637 5.85156C20.4768 5.85156 17.1637 9.16465 17.1637 13.2516C17.1637 17.3385 20.4768 20.6516 24.5637 20.6516Z" fill="#4DB368"/>
<path d="M24.5637 21.2595C28.6506 21.2595 31.9637 17.9464 31.9637 13.8595C31.9637 9.77257 28.6506 6.45947 24.5637 6.45947C20.4768 6.45947 17.1637 9.77257 17.1637 13.8595C17.1637 17.9464 20.4768 21.2595 24.5637 21.2595Z" fill="#4EB469"/>
<path d="M24.5637 21.8658C28.6506 21.8658 31.9637 18.5527 31.9637 14.4658C31.9637 10.3789 28.6506 7.0658 24.5637 7.0658C20.4768 7.0658 17.1637 10.3789 17.1637 14.4658C17.1637 18.5527 20.4768 21.8658 24.5637 21.8658Z" fill="#4FB56A"/>
<path d="M24.5637 22.4724C28.6506 22.4724 31.9637 19.1593 31.9637 15.0724C31.9637 10.9855 28.6506 7.67236 24.5637 7.67236C20.4768 7.67236 17.1637 10.9855 17.1637 15.0724C17.1637 19.1593 20.4768 22.4724 24.5637 22.4724Z" fill="#50B56B"/>
<path d="M24.5637 23.0802C28.6506 23.0802 31.9637 19.7671 31.9637 15.6802C31.9637 11.5932 28.6506 8.28015 24.5637 8.28015C20.4768 8.28015 17.1637 11.5932 17.1637 15.6802C17.1637 19.7671 20.4768 23.0802 24.5637 23.0802Z" fill="#51B66C"/>
<path d="M24.5637 23.6866C28.6506 23.6866 31.9637 20.3735 31.9637 16.2866C31.9637 12.1997 28.6506 8.8866 24.5637 8.8866C20.4768 8.8866 17.1637 12.1997 17.1637 16.2866C17.1637 20.3735 20.4768 23.6866 24.5637 23.6866Z" fill="#52B66C"/>
<path d="M24.5637 24.2943C28.6506 24.2943 31.9637 20.9812 31.9637 16.8943C31.9637 12.8074 28.6506 9.49426 24.5637 9.49426C20.4768 9.49426 17.1637 12.8074 17.1637 16.8943C17.1637 20.9812 20.4768 24.2943 24.5637 24.2943Z" fill="#53B76D"/>
<path d="M24.5637 24.9006C28.6506 24.9006 31.9637 21.5875 31.9637 17.5006C31.9637 13.4137 28.6506 10.1006 24.5637 10.1006C20.4768 10.1006 17.1637 13.4137 17.1637 17.5006C17.1637 21.5875 20.4768 24.9006 24.5637 24.9006Z" fill="#54B86E"/>
<path d="M24.5637 25.5072C28.6506 25.5072 31.9637 22.1941 31.9637 18.1072C31.9637 14.0202 28.6506 10.7072 24.5637 10.7072C20.4768 10.7072 17.1637 14.0202 17.1637 18.1072C17.1637 22.1941 20.4768 25.5072 24.5637 25.5072Z" fill="#55B86F"/>
<path d="M24.5637 26.1148C28.6506 26.1148 31.9637 22.8017 31.9637 18.7148C31.9637 14.6279 28.6506 11.3148 24.5637 11.3148C20.4768 11.3148 17.1637 14.6279 17.1637 18.7148C17.1637 22.8017 20.4768 26.1148 24.5637 26.1148Z" fill="#56B970"/>
<path d="M24.5637 26.7214C28.6506 26.7214 31.9637 23.4083 31.9637 19.3214C31.9637 15.2345 28.6506 11.9214 24.5637 11.9214C20.4768 11.9214 17.1637 15.2345 17.1637 19.3214C17.1637 23.4083 20.4768 26.7214 24.5637 26.7214Z" fill="#57BA71"/>
<path d="M24.5637 27.3278C28.6506 27.3278 31.9637 24.0147 31.9637 19.9278C31.9637 15.8409 28.6506 12.5278 24.5637 12.5278C20.4768 12.5278 17.1637 15.8409 17.1637 19.9278C17.1637 24.0147 20.4768 27.3278 24.5637 27.3278Z" fill="#58BA72"/>
<path d="M24.5637 27.9356C28.6506 27.9356 31.9637 24.6225 31.9637 20.5356C31.9637 16.4487 28.6506 13.1356 24.5637 13.1356C20.4768 13.1356 17.1637 16.4487 17.1637 20.5356C17.1637 24.6225 20.4768 27.9356 24.5637 27.9356Z" fill="#59BB72"/>
<path d="M24.5637 28.5421C28.6506 28.5421 31.9637 25.229 31.9637 21.1421C31.9637 17.0552 28.6506 13.7421 24.5637 13.7421C20.4768 13.7421 17.1637 17.0552 17.1637 21.1421C17.1637 25.229 20.4768 28.5421 24.5637 28.5421Z" fill="#5ABB73"/>
<path d="M24.5637 29.1496C28.6506 29.1496 31.9637 25.8365 31.9637 21.7496C31.9637 17.6627 28.6506 14.3496 24.5637 14.3496C20.4768 14.3496 17.1637 17.6627 17.1637 21.7496C17.1637 25.8365 20.4768 29.1496 24.5637 29.1496Z" fill="#5BBC74"/>
<path d="M24.3948 29.5871C28.4817 29.5871 31.7948 26.274 31.7948 22.1871C31.7948 18.1002 28.4817 14.7871 24.3948 14.7871C20.3078 14.7871 16.9948 18.1002 16.9948 22.1871C16.9948 26.274 20.3078 29.5871 24.3948 29.5871Z" fill="#5CBD75"/>
<path d="M23.787 29.5871C27.8739 29.5871 31.187 26.274 31.187 22.1871C31.187 18.1002 27.8739 14.7871 23.787 14.7871C19.7001 14.7871 16.387 18.1002 16.387 22.1871C16.387 26.274 19.7001 29.5871 23.787 29.5871Z" fill="#5DBD76"/>
<path d="M23.1803 29.5871C27.2672 29.5871 30.5803 26.274 30.5803 22.1871C30.5803 18.1002 27.2672 14.7871 23.1803 14.7871C19.0934 14.7871 15.7803 18.1002 15.7803 22.1871C15.7803 26.274 19.0934 29.5871 23.1803 29.5871Z" fill="#5EBE77"/>
<path d="M22.5741 29.5871C26.661 29.5871 29.9741 26.274 29.9741 22.1871C29.9741 18.1002 26.661 14.7871 22.5741 14.7871C18.4872 14.7871 15.1741 18.1002 15.1741 22.1871C15.1741 26.274 18.4872 29.5871 22.5741 29.5871Z" fill="#5FBF78"/>
<path d="M21.966 29.5871C26.0529 29.5871 29.366 26.274 29.366 22.1871C29.366 18.1002 26.0529 14.7871 21.966 14.7871C17.8791 14.7871 14.566 18.1002 14.566 22.1871C14.566 26.274 17.8791 29.5871 21.966 29.5871Z" fill="#60BF78"/>
<path d="M21.3596 29.5871C25.4465 29.5871 28.7596 26.274 28.7596 22.1871C28.7596 18.1002 25.4465 14.7871 21.3596 14.7871C17.2727 14.7871 13.9596 18.1002 13.9596 22.1871C13.9596 26.274 17.2727 29.5871 21.3596 29.5871Z" fill="#61C079"/>
<path d="M20.7522 29.5871C24.8391 29.5871 28.1522 26.274 28.1522 22.1871C28.1522 18.1002 24.8391 14.7871 20.7522 14.7871C16.6653 14.7871 13.3522 18.1002 13.3522 22.1871C13.3522 26.274 16.6653 29.5871 20.7522 29.5871Z" fill="#62C07A"/>
<path d="M20.1457 29.5871C24.2326 29.5871 27.5457 26.274 27.5457 22.1871C27.5457 18.1002 24.2326 14.7871 20.1457 14.7871C16.0588 14.7871 12.7457 18.1002 12.7457 22.1871C12.7457 26.274 16.0588 29.5871 20.1457 29.5871Z" fill="#63C17B"/>
<path d="M19.5393 29.5871C23.6262 29.5871 26.9393 26.274 26.9393 22.1871C26.9393 18.1002 23.6262 14.7871 19.5393 14.7871C15.4524 14.7871 12.1393 18.1002 12.1393 22.1871C12.1393 26.274 15.4524 29.5871 19.5393 29.5871Z" fill="#64C27C"/>
<path d="M18.9312 29.5871C23.0182 29.5871 26.3313 26.274 26.3313 22.1871C26.3313 18.1002 23.0182 14.7871 18.9312 14.7871C14.8443 14.7871 11.5312 18.1002 11.5312 22.1871C11.5312 26.274 14.8443 29.5871 18.9312 29.5871Z" fill="#65C27D"/>
<path d="M18.3251 29.5871C22.412 29.5871 25.725 26.274 25.725 22.1871C25.725 18.1002 22.412 14.7871 18.3251 14.7871C14.2381 14.7871 10.925 18.1002 10.925 22.1871C10.925 26.274 14.2381 29.5871 18.3251 29.5871Z" fill="#66C37E"/>
<path d="M17.717 29.5871C21.8039 29.5871 25.117 26.274 25.117 22.1871C25.117 18.1002 21.8039 14.7871 17.717 14.7871C13.6301 14.7871 10.317 18.1002 10.317 22.1871C10.317 26.274 13.6301 29.5871 17.717 29.5871Z" fill="#67C37E"/>
<path d="M17.1106 29.5871C21.1975 29.5871 24.5106 26.274 24.5106 22.1871C24.5106 18.1002 21.1975 14.7871 17.1106 14.7871C13.0237 14.7871 9.71057 18.1002 9.71057 22.1871C9.71057 26.274 13.0237 29.5871 17.1106 29.5871Z" fill="#68C47F"/>
<path d="M16.5041 29.5871C20.591 29.5871 23.9041 26.274 23.9041 22.1871C23.9041 18.1002 20.591 14.7871 16.5041 14.7871C12.4172 14.7871 9.10413 18.1002 9.10413 22.1871C9.10413 26.274 12.4172 29.5871 16.5041 29.5871Z" fill="#69C580"/>
<path d="M15.8967 29.5871C19.9836 29.5871 23.2967 26.274 23.2967 22.1871C23.2967 18.1002 19.9836 14.7871 15.8967 14.7871C11.8098 14.7871 8.4967 18.1002 8.4967 22.1871C8.4967 26.274 11.8098 29.5871 15.8967 29.5871Z" fill="#6AC581"/>
<path d="M15.2903 29.5871C19.3772 29.5871 22.6903 26.274 22.6903 22.1871C22.6903 18.1002 19.3772 14.7871 15.2903 14.7871C11.2034 14.7871 7.89026 18.1002 7.89026 22.1871C7.89026 26.274 11.2034 29.5871 15.2903 29.5871Z" fill="#6BC682"/>
<path d="M14.6834 29.5871C18.7704 29.5871 22.0834 26.274 22.0834 22.1871C22.0834 18.1002 18.7704 14.7871 14.6834 14.7871C10.5965 14.7871 7.28345 18.1002 7.28345 22.1871C7.28345 26.274 10.5965 29.5871 14.6834 29.5871Z" fill="#6CC783"/>
<path d="M14.076 29.5871C18.1629 29.5871 21.476 26.274 21.476 22.1871C21.476 18.1002 18.1629 14.7871 14.076 14.7871C9.98912 14.7871 6.67603 18.1002 6.67603 22.1871C6.67603 26.274 9.98912 29.5871 14.076 29.5871Z" fill="#6DC784"/>
<path d="M13.4696 29.5871C17.5565 29.5871 20.8696 26.274 20.8696 22.1871C20.8696 18.1002 17.5565 14.7871 13.4696 14.7871C9.38267 14.7871 6.06958 18.1002 6.06958 22.1871C6.06958 26.274 9.38267 29.5871 13.4696 29.5871Z" fill="#6EC884"/>
<path d="M12.8615 29.5871C16.9485 29.5871 20.2615 26.274 20.2615 22.1871C20.2615 18.1002 16.9485 14.7871 12.8615 14.7871C8.77464 14.7871 5.46155 18.1002 5.46155 22.1871C5.46155 26.274 8.77464 29.5871 12.8615 29.5871Z" fill="#6FC885"/>
<path d="M12.2551 29.5871C16.342 29.5871 19.6551 26.274 19.6551 22.1871C19.6551 18.1002 16.342 14.7871 12.2551 14.7871C8.1682 14.7871 4.8551 18.1002 4.8551 22.1871C4.8551 26.274 8.1682 29.5871 12.2551 29.5871Z" fill="#70C986"/>
<path d="M11.649 29.5871C15.7359 29.5871 19.049 26.274 19.049 22.1871C19.049 18.1002 15.7359 14.7871 11.649 14.7871C7.56212 14.7871 4.24902 18.1002 4.24902 22.1871C4.24902 26.274 7.56212 29.5871 11.649 29.5871Z" fill="#71CA87"/>
<path d="M11.0409 29.5871C15.1278 29.5871 18.4409 26.274 18.4409 22.1871C18.4409 18.1002 15.1278 14.7871 11.0409 14.7871C6.95396 14.7871 3.64087 18.1002 3.64087 22.1871C3.64087 26.274 6.95396 29.5871 11.0409 29.5871Z" fill="#72CA88"/>
<path d="M10.4344 29.5871C14.5213 29.5871 17.8344 26.274 17.8344 22.1871C17.8344 18.1002 14.5213 14.7871 10.4344 14.7871C6.34752 14.7871 3.03442 18.1002 3.03442 22.1871C3.03442 26.274 6.34752 29.5871 10.4344 29.5871Z" fill="#73CB89"/>
<path d="M9.827 29.5871C13.9139 29.5871 17.227 26.274 17.227 22.1871C17.227 18.1002 13.9139 14.7871 9.827 14.7871C5.7401 14.7871 2.427 18.1002 2.427 22.1871C2.427 26.274 5.7401 29.5871 9.827 29.5871Z" fill="#74CC8A"/>
<path d="M9.22056 29.5871C13.3075 29.5871 16.6206 26.274 16.6206 22.1871C16.6206 18.1002 13.3075 14.7871 9.22056 14.7871C5.13365 14.7871 1.82056 18.1002 1.82056 22.1871C1.82056 26.274 5.13365 29.5871 9.22056 29.5871Z" fill="#75CC8A"/>
<path d="M8.61387 29.5871C12.7008 29.5871 16.0139 26.274 16.0139 22.1871C16.0139 18.1002 12.7008 14.7871 8.61387 14.7871C4.52696 14.7871 1.21387 18.1002 1.21387 22.1871C1.21387 26.274 4.52696 29.5871 8.61387 29.5871Z" fill="#76CD8B"/>
<path d="M8.00608 29.5871C12.093 29.5871 15.4061 26.274 15.4061 22.1871C15.4061 18.1002 12.093 14.7871 8.00608 14.7871C3.91917 14.7871 0.606079 18.1002 0.606079 22.1871C0.606079 26.274 3.91917 29.5871 8.00608 29.5871Z" fill="#77CD8C"/>
<path d="M7.4 29.5871C11.4869 29.5871 14.8 26.274 14.8 22.1871C14.8 18.1002 11.4869 14.7871 7.4 14.7871C3.31309 14.7871 0 18.1002 0 22.1871C0 26.274 3.31309 29.5871 7.4 29.5871Z" fill="#78CE8D"/>
<path d="M9.99731 0H13.9999V2.92516C13.9999 4.02968 13.1031 4.92645 11.9986 4.92645C10.8941 4.92645 9.99731 4.02968 9.99731 2.92516V0Z" fill="white"/>
<path d="M20.4297 0H24.4323V2.92516C24.4323 4.02968 23.5355 4.92645 22.431 4.92645C21.3265 4.92645 20.4297 4.02968 20.4297 2.92516V0Z" fill="white"/>
<path d="M24.5636 11.2697H9.86687C9.27977 11.2697 8.80493 10.7936 8.80493 10.2078C8.80493 9.622 9.28106 9.14587 9.86687 9.14587H24.5636C25.1507 9.14587 25.6256 9.622 25.6256 10.2078C25.6256 10.7936 25.1494 11.2697 24.5636 11.2697Z" fill="white"/>
<path d="M15.7494 23.4452C15.4772 23.4452 15.2036 23.3407 14.9972 23.133L10.7378 18.8568C10.3236 18.4413 10.3249 17.7691 10.7404 17.3549C11.1559 16.9407 11.8281 16.942 12.2423 17.3575L15.7662 20.8942L22.1985 14.7226C22.6217 14.3162 23.2939 14.3304 23.7004 14.7536C24.1069 15.1768 24.0927 15.8491 23.6694 16.2555L16.4849 23.1497C16.2798 23.3471 16.0139 23.4452 15.7494 23.4452Z" fill="white"/>
</g>
<defs>
<clipPath id="clip0_0_751">
<rect width="85.7368" height="32" fill="white"/>
</clipPath>
</defs>
</svg>
